<svg width="25" height="24" viewBox="0 0 25 24" fill="none" xmlns="http://www.w3.org/2000/svg">
<path d="M17.5048 14.2357C17.5048 13.852 17.513 13.5049 17.5048 13.1586C17.4922 12.718 17.295 12.5206 16.8627 12.5168C16.1825 12.5109 15.5028 12.5109 14.8236 12.5168C14.3891 12.5168 14.1889 12.7166 14.1756 13.1534C14.1652 13.4997 14.1756 13.8475 14.1756 14.2148H10.8278C10.8278 13.8976 10.8278 13.579 10.8278 13.2611C10.8219 12.7008 10.6425 12.5131 10.099 12.5131C9.46873 12.5131 8.83823 12.5131 8.20748 12.5131C7.68845 12.5131 7.50234 12.7031 7.49344 13.2364C7.48899 13.5356 7.48677 13.8348 7.48158 14.134C7.48158 14.1565 7.4623 14.1789 7.43783 14.2313C6.88617 14.2313 6.31969 14.2485 5.75469 14.22C5.60639 14.2126 5.4314 14.0966 5.31499 13.9822C4.61578 13.2955 3.91954 12.6036 3.24777 11.8878C3.10484 11.7231 3.02215 11.514 3.01346 11.2953C2.99344 9.88686 3.00085 8.47837 3.00382 7.06913C3.00382 6.56947 3.20179 6.37648 3.70674 6.37499C4.75518 6.37499 5.80362 6.37499 6.87579 6.37499C6.89136 6.07579 6.89507 5.80351 6.91954 5.53423C7.04559 4.1407 8.206 3.02693 9.58884 3.01346C11.529 2.99551 13.4697 2.99551 15.4109 3.01346C16.7952 3.02693 17.9519 4.1422 18.0802 5.53722C18.1039 5.79753 18.1061 6.06083 18.121 6.37424H18.5169C19.4438 6.37424 20.3706 6.37424 21.2974 6.37424C21.7987 6.37424 21.9952 6.57096 21.9967 7.07287C21.9967 8.46939 22.0093 9.86591 21.9855 11.2617C21.9741 11.5037 21.8813 11.7346 21.7223 11.9162C21.0713 12.6143 20.3985 13.293 19.704 13.9523C19.521 14.1078 19.2939 14.2013 19.0552 14.2193C18.5533 14.2627 18.0476 14.2357 17.5048 14.2357ZM16.9524 6.36451C17.1845 4.85654 16.1791 4.08311 15.0372 4.12051C13.2577 4.1781 11.4781 4.12724 9.69858 4.13846C8.53966 4.14594 7.76556 5.21633 8.07846 6.36526L16.9524 6.36451Z" fill="white"/>
<path d="M3.66895 13.8483C3.85506 14.0585 4.05155 14.2604 4.22505 14.4811C4.77226 15.1745 5.47814 15.4498 6.34863 15.363C6.71344 15.3263 7.08417 15.3563 7.49347 15.3563C7.49347 15.6988 7.48828 16.0085 7.49347 16.3174C7.50385 16.8029 7.69589 16.9989 8.17043 17.0019C8.83776 17.0053 9.50508 17.0053 10.1724 17.0019C10.6091 16.9981 10.8093 16.8044 10.8234 16.3683C10.8345 16.0467 10.8234 15.7243 10.8234 15.3802H14.1675C14.1675 15.6936 14.1615 16.0108 14.1675 16.3287C14.1786 16.8096 14.3729 17.0019 14.8541 17.0019C15.509 17.0053 16.164 17.0053 16.819 17.0019C17.2965 17.0019 17.4863 16.8059 17.4996 16.3204C17.5071 16.0339 17.5063 15.7475 17.5122 15.461C17.5122 15.4378 17.53 15.4153 17.556 15.3563C18.0313 15.3563 18.5199 15.342 19.0137 15.3607C19.2984 15.38 19.5835 15.3321 19.8466 15.2208C20.1097 15.1096 20.3434 14.938 20.5293 14.7197C20.7896 14.4257 21.052 14.1325 21.3138 13.8393L21.4176 13.9141C21.4235 14.0345 21.4346 14.1542 21.4346 14.2746C21.4346 15.8574 21.4287 17.4409 21.4406 19.0237C21.4406 19.3738 21.2975 19.6131 21.0936 19.8869C20.421 20.789 19.5698 21.0156 18.4643 20.9992C14.1393 20.9326 9.81279 20.9685 5.48852 20.9782C5.13929 20.9782 4.90498 20.8346 4.63509 20.6297C3.74532 19.9512 3.44206 19.0985 3.53326 17.9758C3.63113 16.7625 3.5555 15.5343 3.5555 14.3105V13.9119L3.66895 13.8483ZM18.1343 18.1568V18.1852C17.9015 18.1852 17.665 18.1613 17.4359 18.1919C17.1556 18.2286 17.0066 18.4298 17.0014 18.7088C16.9954 19.008 17.1437 19.2324 17.4418 19.2563C17.8824 19.2877 18.3247 19.2877 18.7653 19.2563C19.0464 19.2369 19.1947 19.02 19.1998 18.741C19.2065 18.4418 19.0575 18.2376 18.7594 18.1897C18.5518 18.1667 18.3432 18.1557 18.1343 18.1568Z" fill="white"/>
<path d="M9.70007 13.659V15.8649H8.63013V13.659H9.70007Z" fill="white"/>
<path d="M16.3785 13.6501V15.8597H15.3123V13.6501H16.3785Z" fill="white"/>
</svg>
