<svg width="22" height="22" viewBox="0 0 22 22" fill="none" xmlns="http://www.w3.org/2000/svg">
<path d="M17.958 11.581C16.2505 11.581 14.6563 11.581 13.0622 11.581C11.4976 11.581 10.7506 12.3177 10.7447 13.8602C10.7447 14.4996 10.7447 15.1376 10.7447 15.7755C10.7565 17.1531 11.5108 17.9221 12.8766 17.9324C14.2998 17.9427 15.7245 17.9324 17.1492 17.9324H17.9477C17.9477 18.6823 17.9993 19.366 17.933 20.0393C17.8667 20.7126 17.3657 20.8658 16.7543 20.8643C12.5564 20.8545 8.35894 20.8545 4.16199 20.8643C3.81871 20.8643 3.47396 20.8643 3.13068 20.8643C2.31594 20.8496 2.01391 20.5696 2.00655 19.7593C1.99181 18.2374 2.00655 16.7155 2.00655 15.1921C2.00655 13.4241 2.00655 11.6562 2.00655 9.88819C2.00655 8.94528 2.30121 8.65946 3.2397 8.65946C7.7323 8.65946 12.2244 8.65946 16.716 8.65946C17.653 8.65946 17.9521 8.96443 17.9624 9.88819C17.9624 10.423 17.958 10.9578 17.958 11.581Z" fill="white"/>
<path d="M15.5731 16.7287C14.6892 16.7287 13.8052 16.7199 12.93 16.7287C12.2494 16.7376 11.9444 16.4076 11.9503 15.7416C11.9562 15.0757 11.9503 14.4157 11.9503 13.7586C11.9503 13.1265 12.2449 12.7965 12.8814 12.7965C14.6916 12.7965 16.5028 12.7965 18.315 12.7965C18.9131 12.7965 19.2107 13.1059 19.2063 13.7114C19.1989 14.4216 19.2063 15.1302 19.2063 15.8403C19.2063 16.4503 18.8925 16.7243 18.2914 16.7243C17.3838 16.7243 16.4792 16.7287 15.5731 16.7287ZM12.9433 14.6087L12.9507 14.9681C13.2733 15.1832 13.5739 15.5251 13.9216 15.5825C14.4151 15.6621 14.7496 15.3114 14.751 14.7825C14.751 14.2256 14.4225 13.8514 13.8847 13.953C13.5414 14.0179 13.2556 14.3803 12.9433 14.6087Z" fill="white"/>
<path d="M13.477 6.86644C12.8517 6.84564 12.2584 6.58485 11.8204 6.13821C11.3823 5.69157 11.133 5.09338 11.1243 4.46781C11.1155 3.84225 11.348 3.23734 11.7735 2.77867C12.199 2.31999 12.7848 2.04276 13.4092 2.00454C13.7379 1.98442 14.0672 2.03121 14.3773 2.14206C14.6874 2.25292 14.9717 2.42555 15.2132 2.64949C15.4546 2.87343 15.648 3.14404 15.7818 3.44492C15.9156 3.7458 15.987 4.07071 15.9916 4.39997C15.9962 4.72923 15.9339 5.056 15.8085 5.36049C15.6832 5.66499 15.4973 5.94088 15.2622 6.17146C15.0272 6.40205 14.7477 6.58253 14.4409 6.70199C14.134 6.82145 13.8061 6.87739 13.477 6.86644Z" fill="white"/>
<path d="M10.2947 7.46461H5.47701C5.41807 6.46129 5.77167 5.69664 6.56725 5.18099C6.94181 4.91572 7.38737 4.76899 7.84626 4.7598C8.30515 4.7506 8.75623 4.87937 9.14111 5.12942C9.98237 5.63476 10.3816 6.4053 10.2947 7.46461Z" fill="white"/>
</svg>
