<svg width="25" height="24" viewBox="0 0 25 24" fill="none" xmlns="http://www.w3.org/2000/svg">
<path d="M11.8731 19.7846V16.1434H11.465C9.63253 16.1434 7.80003 16.1434 5.96752 16.1434C4.76076 16.1434 4.00076 15.3848 4 14.1809C4 11.4374 4 8.69359 4 5.94955C4 4.76693 4.76304 4 5.94173 4C10.3152 4 14.6891 4 19.0636 4C20.2233 4 20.9954 4.76617 20.997 5.91921C21.001 8.68803 21.001 11.4571 20.997 14.2264C20.997 15.3772 20.221 16.1411 19.0605 16.1434C17.228 16.1464 15.3955 16.1464 13.563 16.1434H13.1307V19.7846H14.4633C14.615 19.7846 14.7667 19.7785 14.9184 19.7846C15.2772 19.8058 15.5252 20.0501 15.5336 20.3778C15.5404 20.7199 15.2818 20.9846 14.904 20.9937C14.2472 21.0051 13.5896 20.9975 12.932 20.9975C12.0218 20.9975 11.1116 20.9975 10.2014 20.9975C9.73872 20.9975 9.45277 20.748 9.46567 20.3709C9.4778 20.0076 9.75162 19.7861 10.2022 19.783C10.7445 19.7785 11.2876 19.7846 11.8731 19.7846ZM12.3896 11.0897C11.9345 10.7863 11.5197 10.5071 11.1002 10.2333C10.7308 9.99431 10.4934 10.0118 10.19 10.3137C9.41738 11.0773 8.64903 11.8457 7.88498 12.619C7.59144 12.9156 7.574 13.2744 7.81975 13.5293C8.07915 13.7948 8.43943 13.7789 8.75648 13.4678C9.24419 12.9907 9.72962 12.5113 10.1976 12.0182C10.3666 11.8235 10.5241 11.6191 10.6694 11.406L11.9952 12.2746C12.4905 12.6008 12.7105 12.5697 13.0958 12.1229C14.0323 11.0295 14.9693 9.9359 15.9067 8.84202C15.9902 8.74568 16.0789 8.65389 16.198 8.52418C16.2185 8.6592 16.223 8.72217 16.2375 8.78361C16.3285 9.18035 16.5803 9.38213 16.9201 9.3351C17.2599 9.28807 17.4624 9.03167 17.426 8.62127C17.3752 8.04248 17.3054 7.46596 17.2326 6.88943C17.1939 6.586 17.0278 6.3296 16.7016 6.35084C16.0099 6.39636 15.3182 6.47146 14.6348 6.58373C14.3253 6.63455 14.1926 6.90688 14.2358 7.22321C14.279 7.53954 14.4762 7.71249 14.7971 7.73222C14.9275 7.7398 15.0595 7.73222 15.2522 7.73222L12.3896 11.0897Z" fill="white"/>
</svg>
