<svg width="38" height="38" viewBox="0 0 38 38" fill="none" xmlns="http://www.w3.org/2000/svg">
<path d="M17.0004 1.1547C18.238 0.440172 19.7628 0.440172 21.0004 1.1547L33.4549 8.3453C34.6925 9.05983 35.4549 10.3803 35.4549 11.8094V26.1906C35.4549 27.6197 34.6925 28.9402 33.4549 29.6547L21.0004 36.8453C19.7628 37.5598 18.238 37.5598 17.0004 36.8453L4.5459 29.6547C3.30829 28.9402 2.5459 27.6197 2.5459 26.1906V11.8094C2.5459 10.3803 3.30829 9.05983 4.5459 8.3453L17.0004 1.1547Z" fill="url(#paint0_linear_593_774)"/>
<path d="M13.6564 19.1647L19.1233 10.0938V10.0981L19.1246 10.0938L24.5907 19.1635L24.5936 19.1648L19.1266 22.3964V22.3954L19.1246 22.3966L19.1233 22.3953V22.3964L13.6564 19.1647Z" fill="white"/>
<path d="M19.1233 27.9024V27.9062L13.6562 20.2022L19.1233 23.4321V23.4337L19.1246 23.4321L24.5949 20.2022L19.1246 27.9062L19.1233 27.9024Z" fill="white"/>
<defs>
<linearGradient id="paint0_linear_593_774" x1="19.0004" y1="0.618805" x2="19.0004" y2="37.3812" gradientUnits="userSpaceOnUse">
<stop stop-color="#9A7DE8"/>
<stop offset="1" stop-color="#7852E0"/>
</linearGradient>
</defs>
</svg>
