<svg width="28" height="28" viewBox="0 0 28 28" fill="none" xmlns="http://www.w3.org/2000/svg">
<path d="M11.0003 1.73206C12.8567 0.660258 15.1439 0.660258 17.0003 1.73205L23.1247 5.26795C24.9811 6.33975 26.1247 8.32051 26.1247 10.4641V17.5359C26.1247 19.6795 24.9811 21.6603 23.1247 22.7321L17.0003 26.268C15.1439 27.3397 12.8567 27.3397 11.0003 26.268L4.87598 22.7321C3.01957 21.6603 1.87598 19.6795 1.87598 17.5359V10.4641C1.87598 8.32051 3.01957 6.33975 4.87598 5.26795L11.0003 1.73206Z" fill="url(#paint0_linear_380_5697)"/>
<path d="M10.0626 14.1214L14.0909 7.4375V7.44068L14.0918 7.4375L18.1194 14.1205L18.1216 14.1214L14.0933 16.5026V16.5019L14.0918 16.5027L14.0909 16.5018V16.5026L10.0626 14.1214Z" fill="white"/>
<path d="M14.0909 20.5597V20.5625L10.0625 14.8859L14.0909 17.2658V17.2669L14.0918 17.2658L18.1226 14.8859L14.0918 20.5625L14.0909 20.5597Z" fill="white"/>
<defs>
<linearGradient id="paint0_linear_380_5697" x1="14.0003" y1="0.928207" x2="14.0003" y2="27.0718" gradientUnits="userSpaceOnUse">
<stop stop-color="#9A7DE8"/>
<stop offset="1" stop-color="#7852E0"/>
</linearGradient>
</defs>
</svg>
