<svg width="24" height="24" viewBox="0 0 24 24" fill="none" xmlns="http://www.w3.org/2000/svg">
<path d="M10.6383 14.8333C10.6383 15.093 10.6648 15.334 10.6272 15.5662C10.6075 15.6864 10.4891 15.8592 10.3879 15.8792C10.193 15.923 10.1412 15.7484 10.1412 15.5731C10.1412 15.3353 10.1412 15.0974 10.1412 14.8765C10.0993 14.8495 10.0833 14.8308 10.0666 14.8295C9.2766 14.7788 9.22727 14.7244 9.22727 13.9251V8.51394C9.22727 7.89928 9.34629 7.77723 9.96732 7.75469C10.0167 7.75469 10.0654 7.74343 10.1474 7.73404C10.1474 7.48805 10.1474 7.25145 10.1474 7.01422C10.1474 6.84397 10.1739 6.68561 10.3805 6.68123C10.6019 6.67623 10.642 6.84022 10.642 7.02361V7.7284C10.7351 7.73842 10.8122 7.75156 10.8887 7.75344C11.3932 7.76471 11.5486 7.91994 11.5492 8.43507C11.5492 10.3128 11.5492 12.1887 11.5492 14.0628C11.5492 14.6837 11.4258 14.8089 10.8091 14.8208C10.7684 14.8226 10.7271 14.8276 10.6383 14.8333Z" fill="white"/>
<path d="M13.8594 16.5871C13.8594 16.8663 13.881 17.1185 13.8489 17.3626C13.8353 17.4647 13.7077 17.5504 13.6318 17.6443C13.5436 17.551 13.3956 17.4672 13.379 17.3626C13.3414 17.1191 13.3673 16.8663 13.3673 16.5865C13.2525 16.5796 13.1551 16.5721 13.0589 16.569C12.6383 16.5558 12.4613 16.3812 12.4607 15.9505C12.4566 14.0118 12.4566 12.0734 12.4607 10.1351C12.4607 9.68129 12.6346 9.50916 13.0737 9.50352C13.1557 9.50352 13.2377 9.50352 13.3679 9.50352C13.3679 9.28946 13.3648 9.08603 13.3679 8.88261C13.3716 8.68982 13.3235 8.4407 13.609 8.43006C13.9069 8.42005 13.8557 8.6723 13.8606 8.86445C13.8656 9.05661 13.8606 9.25816 13.8606 9.47598C13.9544 9.48662 14.0321 9.50039 14.1073 9.50227C14.6284 9.51291 14.7752 9.66564 14.7752 10.2039C14.7752 11.5271 14.7752 12.8506 14.7752 14.1742C14.7752 14.7271 14.7752 15.2796 14.7752 15.8316C14.7752 16.4131 14.6401 16.5552 14.0783 16.5696C14.0191 16.5708 13.9587 16.579 13.8594 16.5871Z" fill="white"/>
<path d="M16.6062 6.06407C16.6062 5.78679 16.5809 5.53454 16.6173 5.29105C16.6334 5.18465 16.7746 5.09639 16.8585 5C16.938 5.09326 17.0725 5.17839 17.0854 5.27979C17.1187 5.53329 17.0965 5.7943 17.0965 6.02213C17.1446 6.05656 17.152 6.06658 17.1582 6.06783C18 6.18175 18 6.18175 18 7.04427V12.3602C18 13.0262 17.91 13.1214 17.2667 13.1439C17.2273 13.1439 17.1878 13.1527 17.0965 13.1633C17.0965 13.3999 17.0965 13.6353 17.0965 13.87C17.0965 14.0521 17.0589 14.2261 16.8443 14.2268C16.6297 14.2274 16.5976 14.0484 16.6007 13.8681C16.6007 13.6409 16.6007 13.4131 16.6007 13.1671C16.4928 13.157 16.4157 13.1452 16.3367 13.1433C15.8298 13.1333 15.6904 12.9887 15.6904 12.461C15.6904 10.5832 15.6904 8.70672 15.6904 6.83145C15.6904 6.22368 15.7996 6.10976 16.4033 6.08473C16.457 6.08348 16.5069 6.07471 16.6062 6.06407Z" fill="white"/>
<path d="M7.39932 17.9604V18.6821C7.39932 18.8561 7.3432 19.032 7.15264 18.995C7.05335 18.9756 6.93432 18.7966 6.91459 18.6746C6.87635 18.4436 6.90349 18.2014 6.90349 17.961C6.85414 17.9481 6.8041 17.9381 6.75362 17.931C6.07524 17.8853 6 17.8058 6 17.1292V11.6836C6 10.9713 6.07154 10.8956 6.76102 10.8655C6.79063 10.8655 6.81961 10.8549 6.90287 10.8392C6.90287 10.612 6.90287 10.3779 6.90287 10.1432C6.90287 9.96295 6.9337 9.78519 7.14955 9.77956C7.3654 9.77392 7.40179 9.94856 7.39994 10.1307C7.39994 10.3673 7.39994 10.6045 7.39994 10.8336C8.31083 10.9644 8.31082 10.9644 8.31082 11.882V17.1673C8.31082 17.7826 8.20413 17.8965 7.60839 17.926C7.5498 17.931 7.48813 17.946 7.39932 17.9604Z" fill="white"/>
</svg>
