<svg width="24" height="24" viewBox="0 0 24 24" fill="none" xmlns="http://www.w3.org/2000/svg">
<path d="M16.1952 11.453H11.0945C10.362 11.453 10.2039 11.3064 10.2032 10.6292C10.2032 10.0278 10.2032 9.42567 10.2032 8.82422C10.2069 8.37962 10.4234 8.1805 10.9125 8.17982C12.5213 8.17641 14.1332 8.17982 15.739 8.17982H16.1937C16.1937 7.6752 16.2012 7.19104 16.1937 6.70757C16.1877 6.41298 16.2513 6.16204 16.5846 6.04134C16.906 5.92405 17.1307 6.07407 17.3441 6.2691C18.4621 7.2906 19.5816 8.31074 20.7026 9.32952C21.1019 9.69366 21.0989 9.94801 20.6951 10.3162C19.5761 11.3377 18.4566 12.3579 17.3366 13.3767C17.1202 13.5751 16.8872 13.7115 16.5734 13.5935C16.2596 13.4755 16.1884 13.2376 16.1937 12.9539C16.2019 12.4663 16.1952 11.9801 16.1952 11.453Z" fill="white"/>
<path d="M7.80785 12.5427H9.71704C10.8405 12.5427 11.964 12.5427 13.0875 12.5427C13.5781 12.5427 13.7983 12.7425 13.8013 13.1844C13.8063 13.8426 13.8063 14.5018 13.8013 15.1619C13.8013 15.6236 13.5811 15.8172 13.0651 15.8186C11.4672 15.8186 9.87109 15.8186 8.27672 15.8186H7.80785C7.80785 16.3027 7.80111 16.7733 7.80785 17.2458C7.81384 17.5472 7.77489 17.8193 7.42661 17.9543C7.07832 18.0894 6.84014 17.9018 6.6117 17.6932C5.52016 16.693 4.42737 15.697 3.33333 14.705C2.89292 14.3034 2.88918 14.0627 3.3206 13.6685C4.43062 12.6561 5.54138 11.6442 6.65289 10.6327C6.86711 10.4369 7.09106 10.2883 7.41163 10.4035C7.74418 10.5235 7.81384 10.7718 7.80785 11.0677C7.80111 11.5423 7.80785 12.0176 7.80785 12.5427Z" fill="white"/>
</svg>
