<svg width="30" height="34" viewBox="0 0 30 34" fill="none" xmlns="http://www.w3.org/2000/svg">
<g opacity="0.3" filter="url(#filter0_f_380_5707)">
<path d="M12.0001 9.73206C13.8565 8.66026 16.1437 8.66026 18.0001 9.73205L20.6604 11.268C22.5168 12.3398 23.6604 14.3205 23.6604 16.4641V19.5359C23.6604 21.6795 22.5168 23.6603 20.6604 24.7321L18.0001 26.268C16.1437 27.3398 13.8565 27.3398 12.0001 26.268L9.33984 24.7321C7.48344 23.6603 6.33984 21.6795 6.33984 19.5359V16.4641C6.33984 14.3205 7.48344 12.3398 9.33984 11.268L12.0001 9.73206Z" fill="#0C378D"/>
</g>
<path d="M12.0003 1.73206C13.8567 0.660258 16.1439 0.660258 18.0003 1.73205L24.1247 5.26795C25.9811 6.33975 27.1247 8.32051 27.1247 10.4641V17.5359C27.1247 19.6795 25.9811 21.6603 24.1247 22.7321L18.0003 26.268C16.1439 27.3397 13.8567 27.3397 12.0003 26.268L5.87598 22.7321C4.01957 21.6603 2.87598 19.6795 2.87598 17.5359V10.4641C2.87598 8.32051 4.01957 6.33975 5.87598 5.26795L12.0003 1.73206Z" fill="url(#paint0_linear_380_5707)"/>
<g clip-path="url(#clip0_380_5707)">
<path d="M9.90967 12.1082C8.85518 14.908 10.3096 18.0713 13.1457 19.0893C13.2547 19.1621 13.3638 19.3074 13.3638 19.4165V19.9256C13.3638 19.9983 13.3638 20.0347 13.3274 20.071C13.2911 20.2165 13.1457 20.2892 13.0002 20.2165C10.9641 19.562 9.40058 17.9985 8.7461 15.9624C7.65531 12.5082 9.54604 8.83585 13.0002 7.74506C13.0366 7.70876 13.1093 7.70876 13.1457 7.70876C13.2911 7.74506 13.3638 7.85414 13.3638 7.9996V8.50861C13.3638 8.69047 13.2911 8.79955 13.1457 8.87224C11.6549 9.41763 10.4551 10.5811 9.90967 12.1082Z" fill="white"/>
<path d="M16.6726 7.89052C16.7089 7.74506 16.8543 7.67237 16.9998 7.74506C18.9995 8.39953 20.5994 9.96303 21.2539 12.0355C22.3447 15.4897 20.454 19.1621 16.9998 20.2529C16.9634 20.2892 16.8907 20.2892 16.8543 20.2892C16.7089 20.2529 16.6362 20.1438 16.6362 19.9983V19.4893C16.6362 19.3074 16.7089 19.1984 16.8543 19.1257C18.3451 18.5803 19.5449 17.4168 20.0903 15.8897C21.1448 13.0899 19.6904 9.92664 16.8543 8.90863C16.7453 8.83585 16.6362 8.69047 16.6362 8.545V8.03599C16.6362 7.96322 16.6362 7.92691 16.6726 7.89052Z" fill="white"/>
<path d="M15.1082 13.3806C16.6353 13.5624 17.3988 13.9987 17.3988 15.2713C17.3988 16.253 16.6717 17.0166 15.5809 17.1984V18.071C15.5445 18.2528 15.4354 18.3619 15.2899 18.3619H14.7446C14.5628 18.3255 14.4537 18.2164 14.4537 18.071V17.1984C13.2539 17.0166 12.6721 16.3621 12.5267 15.4531V15.4168C12.5267 15.2713 12.6358 15.1622 12.7812 15.1622H13.3993C13.5084 15.1622 13.6175 15.235 13.6538 15.3804C13.7629 15.9258 14.0901 16.3258 15.0355 16.3258C15.7263 16.3258 16.2353 15.9258 16.2353 15.3441C16.2353 14.7623 15.9081 14.5441 14.89 14.3623C13.3629 14.1805 12.6358 13.7079 12.6358 12.508C12.6358 11.599 13.3265 10.8718 14.4173 10.7263V9.89008C14.4537 9.70823 14.5628 9.59915 14.7083 9.59915H15.2536C15.4354 9.63553 15.5445 9.74461 15.5445 9.89008V10.7627C16.3807 10.8354 17.0352 11.4535 17.1807 12.2534V12.2898C17.1807 12.4352 17.0716 12.5443 16.9261 12.5443H16.3444C16.2353 12.5443 16.1263 12.4716 16.0899 12.3625C15.9081 11.8171 15.5445 11.599 14.89 11.599C14.1629 11.599 13.7992 11.9261 13.7992 12.4352C13.7992 12.9443 14.0174 13.2352 15.1082 13.3806Z" fill="white"/>
</g>
<defs>
<filter id="filter0_f_380_5707" x="0.339844" y="2.92821" width="29.3203" height="30.1436" filterUnits="userSpaceOnUse" color-interpolation-filters="sRGB">
<feFlood flood-opacity="0" result="BackgroundImageFix"/>
<feBlend mode="normal" in="SourceGraphic" in2="BackgroundImageFix" result="shape"/>
<feGaussianBlur stdDeviation="3" result="effect1_foregroundBlur_380_5707"/>
</filter>
<linearGradient id="paint0_linear_380_5707" x1="15.0003" y1="0.928207" x2="15.0003" y2="27.0718" gradientUnits="userSpaceOnUse">
<stop stop-color="#4D83EF"/>
<stop offset="1" stop-color="#145CEB"/>
</linearGradient>
<clipPath id="clip0_380_5707">
<rect width="14" height="14" fill="white" transform="translate(8 7)"/>
</clipPath>
</defs>
</svg>
